<?xml version="1.0" encoding="utf-8"?>
<!-- Generator: Adobe Illustrator 21.0.2, SVG Export Plug-In . SVG Version: 6.00 Build 0)  -->
<svg version="1.1" id="Calque_1" xmlns="http://www.w3.org/2000/svg" xmlns:xlink="http://www.w3.org/1999/xlink" x="0px" y="0px"
	 viewBox="0 0 197 65" style="enable-background:new 0 0 197 65;" xml:space="preserve">
<style type="text/css">
	.st0{fill:#09597D;}
	.st1{fill:#030405;}
</style>
<g>
	<g>
		<g>
			<g>
				<path class="st0" d="M75.7,39.3V9.5h8.8c3.1,0,5.5,0.7,7.2,2c1.7,1.4,2.6,3.4,2.6,6.1c0,1.4-0.3,2.7-0.9,3.8
					c-0.6,1.1-1.6,1.9-2.8,2.5c1.6,0.4,2.7,1.2,3.5,2.4c0.8,1.2,1.1,2.7,1.1,4.3c0,2.9-0.8,5-2.4,6.5s-4,2.2-7,2.2H75.7z M81.6,22.1
					h3.2c1.2,0,2.1-0.4,2.7-1c0.6-0.7,1-1.6,1-2.9c0-1.4-0.3-2.4-1-3.1c-0.7-0.6-1.6-1-3-1h-2.9V22.1z M81.6,26.1v8.5h4.1
					c1.2,0,2.1-0.3,2.8-1c0.6-0.7,0.9-1.7,0.9-3c0-1.4-0.3-2.5-0.8-3.3c-0.5-0.8-1.4-1.1-2.5-1.1H81.6z"/>
				<path class="st0" d="M114.8,26.2h-10v8.4h11.8v4.6H99V9.5h17.6v4.6h-11.7v7.4h10V26.2z"/>
				<path class="st0" d="M135.4,26.2h-10v8.4h11.8v4.6h-17.6V9.5h17.6v4.6h-11.7v7.4h10V26.2z"/>
				<path class="st0" d="M146.1,34.6H157v4.6h-16.7V9.5h5.8V34.6z"/>
				<path class="st0" d="M164.1,22.3h0.1l5-12.8h6.3L167,28.7v10.6h-5.8v-11l-8.4-18.8h6.4L164.1,22.3z"/>
				<path class="st0" d="M190.9,31.5c0-1.2-0.3-2.1-0.9-2.8c-0.6-0.7-1.7-1.3-3.2-2c-3.1-1.1-5.4-2.3-7-3.7
					c-1.5-1.4-2.3-3.3-2.3-5.8c0-2.4,0.9-4.4,2.7-6c1.8-1.5,4.1-2.3,6.9-2.3c2.8,0,5.1,0.9,6.9,2.6c1.8,1.7,2.6,3.9,2.6,6.5l0,0.1
					h-5.6c0-1.4-0.3-2.5-1-3.3c-0.7-0.8-1.6-1.3-2.9-1.3c-1.2,0-2.1,0.4-2.7,1.1c-0.6,0.7-1,1.6-1,2.7c0,1,0.4,1.8,1.1,2.4
					c0.7,0.6,2,1.3,3.8,2.1c2.8,1,4.9,2.2,6.4,3.6c1.4,1.5,2.1,3.4,2.1,5.9c0,2.6-0.9,4.6-2.6,6.1c-1.7,1.5-4,2.2-6.9,2.2
					c-2.8,0-5.3-0.8-7.4-2.5c-2.1-1.7-3.1-4-3-7.1l0-0.1h5.7c0,1.8,0.4,3.2,1.2,4c0.8,0.8,2,1.2,3.5,1.2c1.2,0,2.1-0.3,2.7-1
					C190.6,33.5,190.9,32.6,190.9,31.5z"/>
			</g>
			<g>
				<path class="st1" d="M82.6,46.9v7.5c0,1.2-0.4,2.1-1.1,2.8c-0.7,0.6-1.7,1-2.9,1c-1.2,0-2.1-0.3-2.8-1c-0.7-0.6-1.1-1.6-1.1-2.7
					v-7.5h0.9v7.5c0,0.9,0.3,1.7,0.8,2.2c0.6,0.5,1.3,0.8,2.2,0.8c0.9,0,1.6-0.3,2.2-0.8s0.9-1.2,0.9-2.2v-7.5H82.6z"/>
				<path class="st1" d="M85.9,49.7l0.1,1.4c0.3-0.5,0.6-0.9,1.1-1.2c0.4-0.3,1-0.4,1.6-0.4c0.9,0,1.6,0.3,2,0.8
					c0.5,0.5,0.7,1.4,0.7,2.5v5h-0.9v-5c0-0.9-0.2-1.6-0.5-2c-0.4-0.4-0.8-0.6-1.5-0.6c-0.6,0-1.2,0.2-1.6,0.5
					c-0.4,0.3-0.7,0.8-0.9,1.3v5.7h-0.9v-8.2H85.9z"/>
				<path class="st1" d="M94.7,47.3h-0.9v-1.3h0.9V47.3z M94.7,57.9h-0.9v-8.2h0.9V57.9z"/>
				<path class="st1" d="M99.5,55.8l0.3,1h0l0.3-1l2.2-6.1h0.9l-3.1,8.2h-0.7l-3.1-8.2h0.9L99.5,55.8z"/>
				<path class="st1" d="M107.8,58c-1,0-1.9-0.4-2.6-1.1c-0.7-0.8-1-1.7-1-2.9v-0.4c0-1.2,0.3-2.1,1-2.9c0.7-0.8,1.5-1.2,2.4-1.2
					c1,0,1.8,0.3,2.4,1c0.6,0.6,0.9,1.5,0.9,2.5v0.8h-5.8V54c0,0.9,0.2,1.7,0.7,2.3c0.5,0.6,1.1,0.9,1.9,0.9c0.6,0,1-0.1,1.4-0.2
					c0.4-0.2,0.7-0.4,1-0.7l0.4,0.6c-0.3,0.3-0.7,0.6-1.2,0.8C109,57.9,108.4,58,107.8,58z M107.6,50.3c-0.7,0-1.2,0.3-1.7,0.8
					c-0.5,0.5-0.7,1.2-0.8,1.9l0,0h4.8v-0.2c0-0.7-0.2-1.3-0.6-1.8C108.9,50.5,108.4,50.3,107.6,50.3z"/>
				<path class="st1" d="M116.4,50.5l-0.7,0c-0.6,0-1,0.2-1.4,0.5s-0.6,0.8-0.8,1.3v5.7h-0.9v-8.2h0.8l0.1,1.4v0.1
					c0.2-0.5,0.6-0.9,1-1.2c0.4-0.3,0.9-0.4,1.4-0.4c0.1,0,0.2,0,0.3,0c0.1,0,0.2,0,0.3,0.1L116.4,50.5z"/>
				<path class="st1" d="M122.8,55.8c0-0.4-0.2-0.7-0.5-1c-0.3-0.3-0.9-0.5-1.7-0.7c-1-0.2-1.7-0.5-2.2-0.8s-0.7-0.8-0.7-1.5
					c0-0.6,0.3-1.2,0.8-1.6c0.5-0.4,1.2-0.6,2.1-0.6c0.9,0,1.7,0.2,2.2,0.7s0.8,1,0.8,1.7l0,0h-0.8c0-0.4-0.2-0.8-0.6-1.2
					c-0.4-0.3-0.9-0.5-1.5-0.5c-0.7,0-1.2,0.1-1.5,0.4c-0.3,0.3-0.5,0.6-0.5,1c0,0.4,0.1,0.7,0.4,0.9c0.3,0.2,0.9,0.5,1.7,0.6
					c1,0.2,1.7,0.5,2.2,0.9c0.5,0.4,0.7,0.9,0.7,1.5c0,0.7-0.3,1.2-0.8,1.7c-0.6,0.4-1.3,0.6-2.2,0.6c-1,0-1.8-0.2-2.3-0.7
					c-0.6-0.5-0.8-1-0.8-1.7l0,0h0.8c0,0.6,0.3,1,0.7,1.3c0.4,0.3,1,0.4,1.6,0.4c0.7,0,1.2-0.1,1.6-0.4
					C122.6,56.5,122.8,56.2,122.8,55.8z"/>
				<path class="st1" d="M126.8,47.3h-0.9v-1.3h0.9V47.3z M126.8,57.9h-0.9v-8.2h0.9V57.9z"/>
				<path class="st1" d="M130.8,47.6v2.1h1.8v0.7h-1.8v5.3c0,0.5,0.1,0.9,0.3,1.1c0.2,0.2,0.5,0.3,0.8,0.3c0.1,0,0.3,0,0.4,0
					c0.1,0,0.3,0,0.5-0.1l0.1,0.7c-0.2,0.1-0.3,0.1-0.6,0.2c-0.2,0-0.4,0.1-0.7,0.1c-0.6,0-1-0.2-1.3-0.5c-0.3-0.4-0.5-0.9-0.5-1.7
					v-5.3h-1.4v-0.7h1.4v-2.1H130.8z"/>
				<path class="st1" d="M137.6,58c-1,0-1.9-0.4-2.6-1.1c-0.7-0.8-1-1.7-1-2.9v-0.4c0-1.2,0.3-2.1,1-2.9c0.7-0.8,1.5-1.2,2.4-1.2
					c1,0,1.8,0.3,2.4,1c0.6,0.6,0.9,1.5,0.9,2.5v0.8h-5.8V54c0,0.9,0.2,1.7,0.7,2.3c0.5,0.6,1.1,0.9,1.9,0.9c0.6,0,1-0.1,1.4-0.2
					s0.7-0.4,1-0.7l0.4,0.6c-0.3,0.3-0.7,0.6-1.2,0.8C138.8,57.9,138.2,58,137.6,58z M137.4,50.3c-0.7,0-1.2,0.3-1.7,0.8
					c-0.5,0.5-0.7,1.2-0.8,1.9l0,0h4.8v-0.2c0-0.7-0.2-1.3-0.6-1.8C138.7,50.5,138.2,50.3,137.4,50.3z M138.5,46.5h1.1l0,0l-1.9,2
					H137L138.5,46.5z"/>
				<path class="st1" d="M145.9,53.8c0-1.3,0.3-2.4,0.8-3.1c0.6-0.8,1.3-1.2,2.3-1.2c0.6,0,1.1,0.1,1.5,0.4s0.8,0.6,1,1v-4.9h0.9
					v11.8h-0.8l-0.1-1.2c-0.3,0.4-0.6,0.8-1.1,1c-0.4,0.2-0.9,0.3-1.5,0.3c-1,0-1.7-0.4-2.3-1.1c-0.6-0.7-0.8-1.7-0.8-2.9V53.8z
					 M146.8,54c0,1,0.2,1.8,0.6,2.4c0.4,0.6,1,0.9,1.8,0.9c0.6,0,1.1-0.1,1.5-0.4c0.4-0.3,0.7-0.6,0.9-1.1v-3.9
					c-0.2-0.5-0.5-0.9-0.9-1.2c-0.4-0.3-0.9-0.4-1.5-0.4c-0.8,0-1.4,0.3-1.8,1c-0.4,0.7-0.6,1.5-0.6,2.6V54z"/>
				<path class="st1" d="M157.9,58c-1,0-1.9-0.4-2.6-1.1c-0.7-0.8-1-1.7-1-2.9v-0.4c0-1.2,0.3-2.1,1-2.9c0.7-0.8,1.5-1.2,2.4-1.2
					c1,0,1.8,0.3,2.4,1c0.6,0.6,0.9,1.5,0.9,2.5v0.8h-5.8V54c0,0.9,0.2,1.7,0.7,2.3c0.5,0.6,1.1,0.9,1.9,0.9c0.6,0,1-0.1,1.4-0.2
					s0.7-0.4,1-0.7l0.4,0.6c-0.3,0.3-0.7,0.6-1.2,0.8C159.1,57.9,158.6,58,157.9,58z M157.8,50.3c-0.7,0-1.2,0.3-1.7,0.8
					c-0.5,0.5-0.7,1.2-0.8,1.9l0,0h4.8v-0.2c0-0.7-0.2-1.3-0.6-1.8C159.1,50.5,158.5,50.3,157.8,50.3z"/>
				<path class="st1" d="M167.8,57.1h5.4v0.8h-6.4v-11h0.9V57.1z"/>
				<path class="st1" d="M176.1,55.7l0.3,1h0l2.5-6.9h1l-3.6,9.5c-0.2,0.6-0.5,1-0.8,1.4c-0.3,0.4-0.8,0.6-1.5,0.6
					c-0.1,0-0.2,0-0.4,0c-0.2,0-0.3,0-0.3-0.1l0.1-0.8c0.1,0,0.2,0,0.3,0c0.1,0,0.2,0,0.3,0c0.4,0,0.7-0.1,0.9-0.4
					c0.2-0.3,0.4-0.6,0.6-1.1l0.4-1.1l-3.2-8.1h1L176.1,55.7z"/>
				<path class="st1" d="M180.7,53.7c0-1.2,0.3-2.2,1-3c0.7-0.8,1.5-1.2,2.6-1.2c1.1,0,2,0.4,2.6,1.2c0.7,0.8,1,1.8,1,3v0.2
					c0,1.2-0.3,2.2-1,3c-0.7,0.8-1.5,1.2-2.6,1.2c-1.1,0-2-0.4-2.6-1.2s-1-1.8-1-3V53.7z M181.6,53.9c0,0.9,0.2,1.7,0.7,2.4
					c0.5,0.6,1.1,1,2,1c0.8,0,1.5-0.3,2-1c0.5-0.6,0.7-1.4,0.7-2.4v-0.2c0-0.9-0.2-1.7-0.7-2.4s-1.1-1-2-1c-0.8,0-1.5,0.3-2,1
					c-0.5,0.6-0.7,1.4-0.7,2.4V53.9z"/>
				<path class="st1" d="M190.6,49.7l0.1,1.4c0.3-0.5,0.6-0.9,1.1-1.2c0.4-0.3,1-0.4,1.6-0.4c0.9,0,1.6,0.3,2,0.8
					c0.5,0.5,0.7,1.4,0.7,2.5v5h-0.9v-5c0-0.9-0.2-1.6-0.5-2c-0.4-0.4-0.8-0.6-1.5-0.6c-0.6,0-1.2,0.2-1.6,0.5
					c-0.4,0.3-0.7,0.8-0.9,1.3v5.7h-0.9v-8.2H190.6z"/>
			</g>
		</g>
	</g>
	<g>
		<path class="st0" d="M29.3,21.1c0,0,0.1-0.8-0.1-1.3c0-0.1-0.3-0.5-0.5-0.6c-0.2-0.2-0.4-0.4-1-0.9c-0.6-0.5-0.9-0.8-0.9-0.8
			s-0.2,0.1-0.5,0.3c-0.2,0.2-1,0.9-1.4,1.1c-0.5,0.2-1.9,0.7-2.8,0.9c-0.6,0.1-1.3-0.1-1.6,0c-0.2,0.1-0.3,0.6-0.3,0.6
			s0,0.4,0.1,0.7c0.1,0.3,0.2,0.3,0.4,0.4c0.5,0.2,0.5,0.3,0.7,0.4c0.3,0.1,0.3,0.5,0.3,0.6h9.1c-0.1-0.2-0.3-0.4-0.5-0.6
			C30.2,21.4,29.3,21.1,29.3,21.1z"/>
		<path class="st0" d="M35,21.5c-0.1-0.1-0.5-1-0.5-1s0.7-0.9,0.8-1.6c0-0.3,0-0.5-0.1-0.6c-0.5-0.2-1-0.4-1.2-0.5
			c-1-0.4-2.3-0.2-3.1-0.1c0,0.3,0.1,0.7,0.1,1.1c0,0.7,0.2,1.5,0.3,1.7c0.1,0.2,0.5,0.5,0.7,0.6c0.3,0.2,0.2,0.1,1.1,0.4
			c0.3,0.1,0.3,0.3,0.5,0.4c0,0,0.2,0.2,0.2,0.4h1.9c0-0.1-0.1-0.2-0.1-0.2C35.4,21.9,35.1,21.6,35,21.5z"/>
		<path class="st0" d="M0,0v65h65V0H0z M48.1,44.7c0,7.8-6.4,14.2-14.2,14.2c0,0-0.1,0-0.1,0c0,0-0.1,0-0.1,0
			c-7.8,0-14.2-6.4-14.2-14.2c0-0.1,0-5.2,0-9.2h2.2c0,4,0,9.2,0,9.2c0,6.6,5.4,12,12,12c0,0,0,0,0.1,0v0h0h0v0c0,0,0,0,0.1,0
			c6.6,0,12-5.4,12-12c0,0,0-5.2,0-9.2h2.2C48.1,39.5,48.1,44.7,48.1,44.7z M37,44.6c0,0,0-5.1,0-9.1h2.2c0,4.1,0,9.1,0,9.1
			c0,3-2.4,5.4-5.4,5.4v0c0,0,0,0,0,0c0,0,0,0,0,0v0c-3,0-5.4-2.4-5.4-5.4c0,0,0-5.1,0-9.1h2.2c0,4.1,0,9.1,0,9.1
			c0,1.8,1.4,3.2,3.2,3.2v0h0h0v0C35.6,47.8,37,46.4,37,44.6z M33.8,52.3C33.8,52.3,33.8,52.3,33.8,52.3L33.8,52.3
			C33.8,52.3,33.8,52.3,33.8,52.3C33.8,52.3,33.8,52.3,33.8,52.3L33.8,52.3c0.1,0,0.1,0,0.2,0c4.2,0,7.6-3.4,7.6-7.6
			c0,0,0-5.2,0-9.2h2.2l0,6.9c0,1.4,0,2.3,0,2.3c0,5.4-4.4,9.8-9.8,9.8c0,0,0,0-0.1,0c0,0,0,0-0.1,0c-5.4,0-9.8-4.4-9.8-9.8
			c0,0,0-0.9,0-2.3l0-6.9h2.2c0,4,0,9.2,0,9.2C26.2,48.9,29.6,52.3,33.8,52.3z M48.1,33.3H19.6v-2.2h28.5V33.3z M48.1,28.9H19.6
			v-2.2h28.5V28.9z M49,11c0,0.1-0.2,0.3-0.2,0.3s0,0.1,0,0.1c0,0,0,0.1-0.1,0.2c-0.1,0.2-0.2,0.2-0.3,0.2c-0.1,0.1,0,0.1,0,0.3
			c0,0.1-0.1,0.2-0.2,0.3c-0.1,0.1-0.1,0.1-0.2,0.2c-0.1,0.1-0.1,0.1-0.2,0.1c-0.1,0.1-0.1,0.1-0.1,0.1s-0.1-0.1-0.2-0.2
			c-0.1-0.1-0.2-0.1-0.3-0.1c-0.1,0-0.3-0.1-0.4-0.1c-0.2,0-0.3,0.1-0.4,0.1c-0.1,0-0.1,0.2-0.2,0.3c-0.1,0.1-0.1,0.3-0.2,0.4
			c0,0.1-0.2,0.2-0.2,0.2c0-0.1-0.1-0.3-0.1-0.3c0,0-0.1,0.1-0.2,0.3c-0.1,0.2-0.2,0.5-0.4,0.7c-0.2,0.2-0.1,0.2-0.3,0.3
			c-0.1,0.2-0.2,0.2-0.2,0.2c0-0.1-0.1-0.3-0.1-0.3s-0.2,0.2-0.3,0.3c-0.1,0.1-0.4,0.2-0.5,0.4c-0.1,0.2,0-0.1-0.2,0.2
			c-0.1,0.1-0.3,0.4-0.5,0.6c-0.1,0.1-0.1,0.1-0.2,0.2l0,0.3l0.2,0.5c0,0,0.9,1.2,1.3,1.7c0.4,0.5,1.3,1.7,1.4,1.8
			c0.2,0.1,0.6,0.3,0.9,0.4c1,0.4,0.6,0.5,1.1,0.7c0.3,0.2,0.3,0.5,0.2,0.7h0v2.2H19.6v-0.1h0v-2.1c-0.1-0.1-0.2-0.3-0.3-0.5
			c-0.2-0.6-0.7-1.1-0.7-1.1s0.3-0.6,0.4-0.9c0.3-0.7,0.5-1.9,0.5-1.9s1.3-0.1,1.8-0.2c0.4-0.1,0.8-0.2,0.9-0.3
			c0.1-0.1,0.9-1.1,1.1-1.4c0.2-0.2,1-1.8,1.3-2.5c0-0.1,0.1-0.3,0.1-0.4c-0.8,0.1-1.8,0.4-2.4,0.7c-0.6,0.3-1.5,0.9-2.3,1.3
			c-1,0.4-2.1,0.2-2.6,0c-0.3-0.1-1-0.1-1.4-0.7c-0.3-0.6-0.2-1.2-0.2-1.2s0.9,0.3,1.3,0.6c0.3,0.2,0.5,0.7,0.5,0.7s0.2,0.1,0.7,0.2
			c0.5,0.1,0.9,0,1.5-0.2c0.7-0.3,3.1-2.3,4.5-2.8c0.4-0.1,0.8-0.3,1.2-0.4c0.1-0.1,0.3-0.1,0.5-0.2c1-0.3,1.8-0.5,2.9-0.5
			c1.1,0,1.7,0.3,3.8,0.4c1.3,0,2.4-0.1,2.5-0.2c0.1,0,0.2-0.1,0.3-0.1l0-0.1l-0.2-0.1c0.1,0,0.2-0.2,0.4-0.3
			c0.2-0.1,0.3-0.2,0.4-0.3c0.3-0.2,0.4-0.4,0.5-0.4c0.1-0.1,0.1-0.1,0.1-0.1s-0.1,0-0.2-0.1c-0.1,0-0.2,0-0.2,0s-0.1,0,0.1-0.1
			c0.2-0.1,0.2-0.1,0.4-0.2c0.1-0.1,0.4-0.2,0.6-0.3c0.2-0.1,0.6-0.2,0.8-0.3c0.2-0.1,0.1-0.1,0.1-0.1c-0.1-0.1-0.2-0.2-0.2-0.2
			c0.1-0.1,0.4-0.2,0.6-0.3c0.2-0.1,0.4-0.1,0.5-0.2c0.1-0.1,0.2-0.2,0.2-0.2c-0.1,0-0.2-0.2-0.2-0.2s0.1,0,0.2,0
			c0.2-0.1,0.7-0.2,0.8-0.3c0.3,0,0.5,0,0.7-0.1c0.2,0,0.5-0.1,0.6-0.2c0.1,0,0.4-0.1,0.4-0.1c0.3-0.1,0.4-0.1,0.6-0.1
			c0.1,0,0.6-0.1,0.8-0.1c0.2,0,0.6-0.1,0.7-0.1c0.2,0,0.3,0,0.3,0c0.1,0.1,0.2,0.2,0.4,0.2c0.1,0,0.4,0.2,0.7,0.3
			C45.7,6.8,46,7,46,7c0.1-0.1,0.3-0.1,0.3-0.1c0,0.1,0.1,0.1,0.1,0.2c0,0.1,0.1,0.2,0.2,0.4c0.1,0.2,0.2,0.6,0.2,0.6
			s0.3,0.2,0.4,0.3c0.1,0.1,0.3,0.2,0.3,0.2c0.1,0.1,0.1,0.2,0.1,0.2c0,0,0.1,0.4,0.2,0.4c0.1,0,0.2,0.3,0.3,0.3
			c0.1,0,0.2,0.2,0.3,0.3c0.1,0.1,0.3,0.2,0.4,0.4c0.1,0.1,0.1,0.2,0.1,0.2c0.2,0.2,0.3,0.3,0.3,0.3C49.1,10.9,49,10.9,49,11z"/>
		<path class="st0" d="M42.3,19.3c-0.4-0.3-1.5-0.8-1.9-1c-0.1,0-0.2-0.1-0.2-0.1c-0.1,0-0.1,0.1-0.2,0.1c-0.3,0.2-1.1,0.3-1.9,0.4
			c-0.1,0.2-0.2,0.3-0.5,0.6c-0.2,0.3-1.3,1.3-1.3,1.3s0.1,0.4,0.2,0.5c0.2,0.2,0.3,0.1,0.9,0.4c0.2,0.1,0.3,0.2,0.4,0.3
			c0.2,0.1,0.2,0.3,0.2,0.5h8.4c-0.2,0-0.2-0.1-0.5-0.4c-0.3-0.3-0.6-0.3-0.6-0.3s-0.8-0.2-1-0.4c-0.2-0.3-1.1-0.7-1.1-0.7
			S42.7,19.6,42.3,19.3z"/>
	</g>
</g>
</svg>
